<svg width="60" height="60" viewBox="0 0 60 60" fill="none" xmlns="http://www.w3.org/2000/svg">
<path d="M30 60C46.5685 60 60 46.5685 60 30C60 13.4315 46.5685 0 30 0C13.4315 0 0 13.4315 0 30C0 46.5685 13.4315 60 30 60Z" fill="#00001F"/>
<mask id="mask0_1_3" style="mask-type:luminance" maskUnits="userSpaceOnUse" x="9" y="8" width="42" height="44">
<path d="M50.1746 40.1642C49.8895 38.6135 49.4993 37.0823 49.0657 35.5667C48.6143 33.9915 48.1113 32.4319 47.5763 30.8835C47.1024 29.512 46.6032 28.1494 46.0839 26.795C45.7219 25.8511 45.3496 24.9101 44.966 23.9743C44.8653 23.7281 44.7631 23.4826 44.6601 23.2371C44.5534 22.9834 44.4832 22.7349 44.3892 22.4744C44.281 22.1737 44.1609 21.8805 44.1556 21.5559C44.1504 21.2298 44.2571 20.9313 44.475 20.688C44.6907 20.4477 44.9593 20.2627 45.219 20.0739C45.5227 19.853 45.8287 19.6358 46.1368 19.4217C46.751 18.9956 47.3808 18.5941 48.0054 18.1845C48.2643 18.0151 48.5068 17.7517 48.3941 17.4174C48.2807 17.0808 47.8815 17.0831 47.5905 17.1077C47.2159 17.1398 46.8525 17.2383 46.4853 17.3114C46.1465 17.3793 45.804 17.4174 45.4593 17.4278C44.778 17.4487 44.0974 17.3621 43.443 17.1711C43.1124 17.0748 42.7886 16.9525 42.4789 16.8017C42.402 16.7644 42.1797 16.6838 42.1595 16.5838C42.1446 16.5077 42.2655 16.4876 42.3244 16.4734C42.4565 16.4421 42.5946 16.4443 42.7289 16.4309C42.9221 16.4115 43.1154 16.3846 43.3064 16.3503C43.4781 16.3189 43.649 16.2809 43.8176 16.2354C43.9751 16.1928 44.1161 16.1346 44.2571 16.0316C44.4504 15.8906 44.766 15.5556 44.6698 15.2705C44.5929 15.0429 44.2922 14.9414 44.1534 14.9175C43.9534 14.8832 43.8236 14.8817 43.6258 14.8907C43.4393 14.8996 43.2587 14.9481 43.0617 14.9728C42.308 15.0675 41.5058 15.2638 40.7178 15.3974C39.3269 15.6332 38.0121 15.9331 36.6666 16.2921C36.0264 16.463 34.6653 16.5801 34.6459 16.5861C32.1565 16.9375 26.1958 14.3221 23.3281 12.9714C22.4304 12.5483 21.5685 12.0543 20.7514 11.4917C15.2981 7.73002 12.661 8.25461 12.5453 8.28073L12.0259 8.39564L12.4752 8.6807C12.4998 8.69637 14.9802 10.2977 17.1062 14.0042C19.062 17.4129 21.0947 23.3348 19.7261 32.2282C19.7209 32.2327 19.7149 32.2364 19.7097 32.2409C19.6134 32.3155 19.5202 32.3924 19.4261 32.4692L19.1485 32.702L18.8762 32.9401C18.5165 33.2609 18.1695 33.5938 17.8292 33.9325C17.1539 34.6153 16.5144 35.3324 15.9137 36.0786C15.3123 36.8249 14.7496 37.6009 14.2243 38.4016L14.0295 38.7031C13.9646 38.8038 13.8982 38.9031 13.8378 39.006L13.4654 39.6194C13.2288 40.0351 12.9878 40.4485 12.7707 40.8738L12.6035 41.191L12.5617 41.2701L12.5222 41.3506L12.4438 41.5118L12.1304 42.1566C11.9379 42.5938 11.7334 43.0251 11.5596 43.4706L11.4245 43.802L11.3573 43.9676C11.335 44.0228 11.3156 44.0795 11.2947 44.1355L11.0477 44.8071L10.9857 44.975L10.9298 45.1451L10.8178 45.4847L10.7059 45.8242L10.6499 45.9943C10.632 46.051 10.6164 46.1085 10.5999 46.166C10.0515 47.9927 9.66642 49.8649 9.44629 51.7551C9.71418 49.8709 10.1455 48.0128 10.7365 46.2092C10.7544 46.1525 10.7716 46.0958 10.791 46.0398L10.8507 45.8719L10.9701 45.5369L11.0895 45.2018L11.1491 45.0347L11.2148 44.869L11.4767 44.2079C11.4991 44.1527 11.5193 44.0975 11.5431 44.043L11.614 43.8803L11.7566 43.5542C11.9394 43.1169 12.1536 42.6938 12.355 42.2648L12.6811 41.6335L12.7625 41.476L12.8035 41.3969L12.8468 41.3193L13.0199 41.0096C13.246 40.5932 13.4945 40.1903 13.7385 39.7858L14.1221 39.1889C14.1847 39.0889 14.2526 38.9919 14.3191 38.8941L14.519 38.6016C15.0578 37.8248 15.6324 37.0726 16.2428 36.3525C16.8532 35.6324 17.4994 34.9429 18.1785 34.29C18.5202 33.9661 18.868 33.649 19.2262 33.3445L19.497 33.1192L19.7716 32.8998C19.8552 32.8349 19.9388 32.7699 20.0231 32.7073C23.2893 32.3774 31.7021 32.1931 40.044 37.4397C43.781 39.7903 46.9308 42.8961 49.406 46.6719C49.4485 46.7361 49.5187 46.7711 49.5903 46.7711C49.6313 46.7711 49.6731 46.7592 49.7104 46.7353C49.7433 46.7137 49.7672 46.6853 49.7836 46.6532C50.3731 45.9511 50.5111 44.9623 50.5462 44.0766C50.5984 42.767 50.4111 41.4477 50.1753 40.1627L50.1746 40.1642Z" fill="white"/>
</mask>
<g mask="url(#mask0_1_3)">
<path d="M-26.41 57.0771C-21.9364 56.8726 -18.077 54.6952 -13.9788 53.1266C-9.91643 51.5715 -6.25625 51.3372 -2.1185 52.799C1.44019 54.0557 4.7877 55.9981 8.50683 56.7778C12.0387 57.5181 15.3503 56.5555 18.6113 55.222C21.8014 53.9169 24.9765 52.2394 28.4374 51.7917C32.0088 51.3297 35.3959 52.6729 38.6188 54.046C41.7984 55.4011 45.0959 57.0144 48.6217 57.0689C52.3095 57.1256 55.7615 55.4175 59.0762 54.0087C63.4079 52.167 67.4562 51.0313 72.0894 52.4655C76.9166 53.9601 81.2454 56.842 86.4092 57.0786" stroke="white" stroke-width="0.5" stroke-miterlimit="10"/>
<path d="M-26.41 55.6391C-21.9364 55.4347 -18.077 53.2572 -13.9788 51.6887C-9.91643 50.1336 -6.25625 49.8993 -2.1185 51.3611C1.44019 52.6177 4.7877 54.5601 8.50683 55.3399C12.0387 56.0801 15.3503 55.1175 18.6113 53.7841C21.8014 52.4789 24.9765 50.8014 28.4374 50.3537C32.0088 49.8918 35.3959 51.235 38.6188 52.608C41.7984 53.9631 45.0959 55.5765 48.6217 55.6309C52.3095 55.6876 55.7615 53.9796 59.0762 52.5707C63.4079 50.7291 67.4562 49.5933 72.0894 51.0275C76.9166 52.5222 81.2454 55.4041 86.4092 55.6406" stroke="white" stroke-width="0.5" stroke-miterlimit="10"/>
<path d="M-26.41 54.2012C-21.9364 53.9967 -18.077 51.8193 -13.9788 50.2507C-9.91643 48.6956 -6.25625 48.4613 -2.1185 49.9231C1.44019 51.1798 4.7877 53.1222 8.50683 53.9019C12.0387 54.6422 15.3503 53.6796 18.6113 52.3461C21.8014 51.041 24.9765 49.3635 28.4374 48.9158C32.0088 48.4538 35.3959 49.797 38.6188 51.1701C41.7984 52.5252 45.0959 54.1385 48.6217 54.193C52.3095 54.2497 55.7615 52.5416 59.0762 51.1327C63.4079 49.2911 67.4562 48.1554 72.0894 49.5896C76.9166 51.0842 81.2454 53.9661 86.4092 54.2027" stroke="white" stroke-width="0.5" stroke-miterlimit="10"/>
<path d="M-26.41 52.764C-21.9364 52.5595 -18.077 50.3821 -13.9788 48.8135C-9.91643 47.2584 -6.25625 47.0241 -2.1185 48.4859C1.44019 49.7426 4.7877 51.6849 8.50683 52.4647C12.0387 53.205 15.3503 52.2424 18.6113 50.9089C21.8014 49.6038 24.9765 47.9263 28.4374 47.4785C32.0088 47.0166 35.3959 48.3598 38.6188 49.7328C41.7984 51.088 45.0959 52.7013 48.6217 52.7558C52.3095 52.8125 55.7615 51.1044 59.0762 49.6955C63.4079 47.8539 67.4562 46.7181 72.0894 48.1524C76.9166 49.647 81.2454 52.5289 86.4092 52.7655" stroke="white" stroke-width="0.5" stroke-miterlimit="10"/>
<path d="M-26.41 51.326C-21.9364 51.1216 -18.077 48.9441 -13.9788 47.3756C-9.91643 45.8205 -6.25625 45.5861 -2.1185 47.048C1.44019 48.3046 4.7877 50.247 8.50683 51.0268C12.0387 51.767 15.3503 50.8044 18.6113 49.4709C21.8014 48.1658 24.9765 46.4883 28.4374 46.0406C32.0088 45.5787 35.3959 46.9219 38.6188 48.2949C41.7984 49.65 45.0959 51.2633 48.6217 51.3178C52.3095 51.3745 55.7615 49.6664 59.0762 48.2576C63.4079 46.4159 67.4562 45.2802 72.0894 46.7144C76.9166 48.2091 81.2454 51.091 86.4092 51.3275" stroke="white" stroke-width="0.5" stroke-miterlimit="10"/>
<path d="M-26.41 49.8881C-21.9364 49.6836 -18.077 47.5062 -13.9788 45.9376C-9.91643 44.3825 -6.25625 44.1482 -2.1185 45.61C1.44019 46.8667 4.7877 48.809 8.50683 49.5888C12.0387 50.3291 15.3503 49.3665 18.6113 48.033C21.8014 46.7279 24.9765 45.0504 28.4374 44.6026C32.0088 44.1407 35.3959 45.4839 38.6188 46.857C41.7984 48.2121 45.0959 49.8254 48.6217 49.8799C52.3095 49.9366 55.7615 48.2285 59.0762 46.8196C63.4079 44.978 67.4562 43.8423 72.0894 45.2765C76.9166 46.7711 81.2454 49.653 86.4092 49.8896" stroke="white" stroke-width="0.5" stroke-miterlimit="10"/>
<path d="M-26.41 48.4509C-21.9364 48.2464 -18.077 46.069 -13.9788 44.5004C-9.91643 42.9453 -6.25625 42.711 -2.1185 44.1728C1.44019 45.4294 4.7877 47.3718 8.50683 48.1516C12.0387 48.8919 15.3503 47.9293 18.6113 46.5958C21.8014 45.2907 24.9765 43.6132 28.4374 43.1654C32.0088 42.7035 35.3959 44.0467 38.6188 45.4197C41.7984 46.7749 45.0959 48.3882 48.6217 48.4427C52.3095 48.4994 55.7615 46.7913 59.0762 45.3824C63.4079 43.5408 67.4562 42.405 72.0894 43.8393C76.9166 45.3339 81.2454 48.2158 86.4092 48.4524" stroke="white" stroke-width="0.5" stroke-miterlimit="10"/>
<path d="M-26.41 47.0129C-21.9364 46.8084 -18.077 44.631 -13.9788 43.0625C-9.91643 41.5073 -6.25625 41.273 -2.1185 42.7349C1.44019 43.9915 4.7877 45.9339 8.50683 46.7137C12.0387 47.4539 15.3503 46.4913 18.6113 45.1578C21.8014 43.8527 24.9765 42.1752 28.4374 41.7275C32.0088 41.2656 35.3959 42.6088 38.6188 43.9818C41.7984 45.3369 45.0959 46.9502 48.6217 47.0047C52.3095 47.0614 55.7615 45.3533 59.0762 43.9445C63.4079 42.1028 67.4562 40.9671 72.0894 42.4013C76.9166 43.896 81.2454 46.7778 86.4092 47.0144" stroke="white" stroke-width="0.5" stroke-miterlimit="10"/>
<path d="M-26.41 45.575C-21.9364 45.3705 -18.077 43.193 -13.9788 41.6245C-9.91643 40.0694 -6.25625 39.8351 -2.1185 41.2969C1.44019 42.5535 4.7877 44.4959 8.50683 45.2757C12.0387 46.016 15.3503 45.0534 18.6113 43.7199C21.8014 42.4147 24.9765 40.7373 28.4374 40.2895C32.0088 39.8276 35.3959 41.1708 38.6188 42.5438C41.7984 43.899 45.0959 45.5123 48.6217 45.5668C52.3095 45.6235 55.7615 43.9154 59.0762 42.5065C63.4079 40.6649 67.4562 39.5291 72.0894 40.9634C76.9166 42.458 81.2454 45.3399 86.4092 45.5765" stroke="white" stroke-width="0.5" stroke-miterlimit="10"/>
<path d="M-26.41 44.1377C-21.9364 43.9333 -18.077 41.7558 -13.9788 40.1873C-9.91643 38.6322 -6.25625 38.3979 -2.1185 39.8597C1.44019 41.1163 4.7877 43.0587 8.50683 43.8385C12.0387 44.5788 15.3503 43.6161 18.6113 42.2827C21.8014 40.9775 24.9765 39.3 28.4374 38.8523C32.0088 38.3904 35.3959 39.7336 38.6188 41.1066C41.7984 42.4618 45.0959 44.0751 48.6217 44.1295C52.3095 44.1863 55.7615 42.4782 59.0762 41.0693C63.4079 39.2277 67.4562 38.0919 72.0894 39.5262C76.9166 41.0208 81.2454 43.9027 86.4092 44.1392" stroke="white" stroke-width="0.5" stroke-miterlimit="10"/>
<path d="M-26.41 42.6998C-21.9364 42.4953 -18.077 40.3179 -13.9788 38.7493C-9.91643 37.1942 -6.25625 36.9599 -2.1185 38.4218C1.44019 39.6784 4.7877 41.6208 8.50683 42.4006C12.0387 43.1408 15.3503 42.1782 18.6113 40.8447C21.8014 39.5396 24.9765 37.8621 28.4374 37.4144C32.0088 36.9525 35.3959 38.2956 38.6188 39.6687C41.7984 41.0238 45.0959 42.6371 48.6217 42.6916C52.3095 42.7483 55.7615 41.0402 59.0762 39.6314C63.4079 37.7897 67.4562 36.654 72.0894 38.0882C76.9166 39.5829 81.2454 42.4647 86.4092 42.7013" stroke="white" stroke-width="0.5" stroke-miterlimit="10"/>
<path d="M-26.41 41.2618C-21.9364 41.0574 -18.077 38.8799 -13.9788 37.3114C-9.91643 35.7563 -6.25625 35.522 -2.1185 36.9838C1.44019 38.2404 4.7877 40.1828 8.50683 40.9626C12.0387 41.7029 15.3503 40.7402 18.6113 39.4068C21.8014 38.1016 24.9765 36.4241 28.4374 35.9764C32.0088 35.5145 35.3959 36.8577 38.6188 38.2307C41.7984 39.5858 45.0959 41.1992 48.6217 41.2536C52.3095 41.3103 55.7615 39.6023 59.0762 38.1934C63.4079 36.3518 67.4562 35.216 72.0894 36.6502C76.9166 38.1449 81.2454 41.0268 86.4092 41.2633" stroke="white" stroke-width="0.5" stroke-miterlimit="10"/>
<path d="M-26.41 39.8246C-21.9364 39.6202 -18.077 37.4427 -13.9788 35.8742C-9.91643 34.3191 -6.25625 34.0848 -2.1185 35.5466C1.44019 36.8032 4.7877 38.7456 8.50683 39.5254C12.0387 40.2656 15.3503 39.303 18.6113 37.9696C21.8014 36.6644 24.9765 34.9869 28.4374 34.5392C32.0088 34.0773 35.3959 35.4205 38.6188 36.7935C41.7984 38.1486 45.0959 39.762 48.6217 39.8164C52.3095 39.8731 55.7615 38.1651 59.0762 36.7562C63.4079 34.9146 67.4562 33.7788 72.0894 35.213C76.9166 36.7077 81.2454 39.5896 86.4092 39.8261" stroke="white" stroke-width="0.5" stroke-miterlimit="10"/>
<path d="M-26.41 38.3867C-21.9364 38.1822 -18.077 36.0048 -13.9788 34.4362C-9.91643 32.8811 -6.25625 32.6468 -2.1185 34.1087C1.44019 35.3653 4.7877 37.3077 8.50683 38.0875C12.0387 38.8277 15.3503 37.8651 18.6113 36.5316C21.8014 35.2265 24.9765 33.549 28.4374 33.1013C32.0088 32.6394 35.3959 33.9825 38.6188 35.3556C41.7984 36.7107 45.0959 38.324 48.6217 38.3785C52.3095 38.4352 55.7615 36.7271 59.0762 35.3183C63.4079 33.4766 67.4562 32.3409 72.0894 33.7751C76.9166 35.2698 81.2454 38.1516 86.4092 38.3882" stroke="white" stroke-width="0.5" stroke-miterlimit="10"/>
<path d="M-26.41 36.9487C-21.9364 36.7443 -18.077 34.5668 -13.9788 32.9983C-9.91643 31.4432 -6.25625 31.2089 -2.1185 32.6707C1.44019 33.9273 4.7877 35.8697 8.50683 36.6495C12.0387 37.3897 15.3503 36.4271 18.6113 35.0937C21.8014 33.7885 24.9765 32.111 28.4374 31.6633C32.0088 31.2014 35.3959 32.5446 38.6188 33.9176C41.7984 35.2727 45.0959 36.8861 48.6217 36.9405C52.3095 36.9972 55.7615 35.2892 59.0762 33.8803C63.4079 32.0387 67.4562 30.9029 72.0894 32.3371C76.9166 33.8318 81.2454 36.7137 86.4092 36.9502" stroke="white" stroke-width="0.5" stroke-miterlimit="10"/>
<path d="M-26.41 35.5115C-21.9364 35.3071 -18.077 33.1296 -13.9788 31.5611C-9.91643 30.006 -6.25625 29.7717 -2.1185 31.2335C1.44019 32.4901 4.7877 34.4325 8.50683 35.2123C12.0387 35.9525 15.3503 34.9899 18.6113 33.6564C21.8014 32.3513 24.9765 30.6738 28.4374 30.2261C32.0088 29.7642 35.3959 31.1074 38.6188 32.4804C41.7984 33.8355 45.0959 35.4488 48.6217 35.5033C52.3095 35.56 55.7615 33.8519 59.0762 32.4431C63.4079 30.6014 67.4562 29.4657 72.0894 30.8999C76.9166 32.3946 81.2454 35.2765 86.4092 35.513" stroke="white" stroke-width="0.5" stroke-miterlimit="10"/>
<path d="M-26.41 34.0736C-21.9364 33.8691 -18.077 31.6917 -13.9788 30.1231C-9.91643 28.568 -6.25625 28.3337 -2.1185 29.7955C1.44019 31.0522 4.7877 32.9946 8.50683 33.7743C12.0387 34.5146 15.3503 33.552 18.6113 32.2185C21.8014 30.9134 24.9765 29.2359 28.4374 28.7882C32.0088 28.3262 35.3959 29.6694 38.6188 31.0425C41.7984 32.3976 45.0959 34.0109 48.6217 34.0654C52.3095 34.1221 55.7615 32.414 59.0762 31.0051C63.4079 29.1635 67.4562 28.0278 72.0894 29.462C76.9166 30.9566 81.2454 33.8385 86.4092 34.0751" stroke="white" stroke-width="0.5" stroke-miterlimit="10"/>
<path d="M-26.41 32.6356C-21.9364 32.4312 -18.077 30.2537 -13.9788 28.6852C-9.91643 27.1301 -6.25625 26.8958 -2.1185 28.3576C1.44019 29.6142 4.7877 31.5566 8.50683 32.3364C12.0387 33.0766 15.3503 32.114 18.6113 30.7805C21.8014 29.4754 24.9765 27.7979 28.4374 27.3502C32.0088 26.8883 35.3959 28.2315 38.6188 29.6045C41.7984 30.9596 45.0959 32.5729 48.6217 32.6274C52.3095 32.6841 55.7615 30.9761 59.0762 29.5672C63.4079 27.7255 67.4562 26.5898 72.0894 28.024C76.9166 29.5187 81.2454 32.4006 86.4092 32.6371" stroke="white" stroke-width="0.5" stroke-miterlimit="10"/>
<path d="M-26.41 31.1984C-21.9364 30.994 -18.077 28.8165 -13.9788 27.248C-9.91643 25.6929 -6.25625 25.4585 -2.1185 26.9204C1.44019 28.177 4.7877 30.1194 8.50683 30.8992C12.0387 31.6394 15.3503 30.6768 18.6113 29.3433C21.8014 28.0382 24.9765 26.3607 28.4374 25.913C32.0088 25.4511 35.3959 26.7943 38.6188 28.1673C41.7984 29.5224 45.0959 31.1357 48.6217 31.1902C52.3095 31.2469 55.7615 29.5388 59.0762 28.13C63.4079 26.2883 67.4562 25.1526 72.0894 26.5868C76.9166 28.0815 81.2454 30.9634 86.4092 31.1999" stroke="white" stroke-width="0.5" stroke-miterlimit="10"/>
<path d="M-26.41 29.7605C-21.9364 29.556 -18.077 27.3786 -13.9788 25.81C-9.91643 24.2549 -6.25625 24.0206 -2.1185 25.4824C1.44019 26.739 4.7877 28.6814 8.50683 29.4612C12.0387 30.2015 15.3503 29.2389 18.6113 27.9054C21.8014 26.6003 24.9765 24.9228 28.4374 24.475C32.0088 24.0131 35.3959 25.3563 38.6188 26.7294C41.7984 28.0845 45.0959 29.6978 48.6217 29.7523C52.3095 29.809 55.7615 28.1009 59.0762 26.692C63.4079 24.8504 67.4562 23.7146 72.0894 25.1489C76.9166 26.6435 81.2454 29.5254 86.4092 29.762" stroke="white" stroke-width="0.5" stroke-miterlimit="10"/>
<path d="M-26.41 28.3225C-21.9364 28.1181 -18.077 25.9406 -13.9788 24.3721C-9.91643 22.817 -6.25625 22.5826 -2.1185 24.0445C1.44019 25.3011 4.7877 27.2435 8.50683 28.0233C12.0387 28.7635 15.3503 27.8009 18.6113 26.4674C21.8014 25.1623 24.9765 23.4848 28.4374 23.0371C32.0088 22.5752 35.3959 23.9184 38.6188 25.2914C41.7984 26.6465 45.0959 28.2598 48.6217 28.3143C52.3095 28.371 55.7615 26.6629 59.0762 25.2541C63.4079 23.4124 67.4562 22.2767 72.0894 23.7109C76.9166 25.2056 81.2454 28.0875 86.4092 28.324" stroke="white" stroke-width="0.5" stroke-miterlimit="10"/>
<path d="M-26.41 26.8853C-21.9364 26.6808 -18.077 24.5034 -13.9788 22.9349C-9.91643 21.3797 -6.25625 21.1454 -2.1185 22.6073C1.44019 23.8639 4.7877 25.8063 8.50683 26.5861C12.0387 27.3263 15.3503 26.3637 18.6113 25.0302C21.8014 23.7251 24.9765 22.0476 28.4374 21.5999C32.0088 21.138 35.3959 22.4812 38.6188 23.8542C41.7984 25.2093 45.0959 26.8226 48.6217 26.8771C52.3095 26.9338 55.7615 25.2257 59.0762 23.8169C63.4079 21.9752 67.4562 20.8395 72.0894 22.2737C76.9166 23.7684 81.2454 26.6502 86.4092 26.8868" stroke="white" stroke-width="0.5" stroke-miterlimit="10"/>
<path d="M-26.41 25.4474C-21.9364 25.2429 -18.077 23.0654 -13.9788 21.4969C-9.91643 19.9418 -6.25625 19.7075 -2.1185 21.1693C1.44019 22.4259 4.7877 24.3683 8.50683 25.1481C12.0387 25.8884 15.3503 24.9258 18.6113 23.5923C21.8014 22.2871 24.9765 20.6097 28.4374 20.1619C32.0088 19.7 35.3959 21.0432 38.6188 22.4162C41.7984 23.7714 45.0959 25.3847 48.6217 25.4391C52.3095 25.4959 55.7615 23.7878 59.0762 22.3789C63.4079 20.5373 67.4562 19.4015 72.0894 20.8358C76.9166 22.3304 81.2454 25.2123 86.4092 25.4488" stroke="white" stroke-width="0.5" stroke-miterlimit="10"/>
<path d="M-26.41 24.0094C-21.9364 23.8049 -18.077 21.6275 -13.9788 20.059C-9.91643 18.5038 -6.25625 18.2695 -2.1185 19.7314C1.44019 20.988 4.7877 22.9304 8.50683 23.7102C12.0387 24.4504 15.3503 23.4878 18.6113 22.1543C21.8014 20.8492 24.9765 19.1717 28.4374 18.724C32.0088 18.2621 35.3959 19.6053 38.6188 20.9783C41.7984 22.3334 45.0959 23.9467 48.6217 24.0012C52.3095 24.0579 55.7615 22.3498 59.0762 20.941C63.4079 19.0993 67.4562 17.9636 72.0894 19.3978C76.9166 20.8925 81.2454 23.7743 86.4092 24.0109" stroke="white" stroke-width="0.5" stroke-miterlimit="10"/>
<path d="M-26.41 22.5722C-21.9364 22.3677 -18.077 20.1903 -13.9788 18.6217C-9.91643 17.0666 -6.25625 16.8323 -2.1185 18.2942C1.44019 19.5508 4.7877 21.4932 8.50683 22.273C12.0387 23.0132 15.3503 22.0506 18.6113 20.7171C21.8014 19.412 24.9765 17.7345 28.4374 17.2868C32.0088 16.8249 35.3959 18.168 38.6188 19.5411C41.7984 20.8962 45.0959 22.5095 48.6217 22.564C52.3095 22.6207 55.7615 20.9126 59.0762 19.5038C63.4079 17.6621 67.4562 16.5264 72.0894 17.9606C76.9166 19.4553 81.2454 22.3371 86.4092 22.5737" stroke="white" stroke-width="0.5" stroke-miterlimit="10"/>
<path d="M-26.41 21.1342C-21.9364 20.9298 -18.077 18.7523 -13.9788 17.1838C-9.91643 15.6287 -6.25625 15.3944 -2.1185 16.8562C1.44019 18.1128 4.7877 20.0552 8.50683 20.835C12.0387 21.5752 15.3503 20.6126 18.6113 19.2792C21.8014 17.974 24.9765 16.2965 28.4374 15.8488C32.0088 15.3869 35.3959 16.7301 38.6188 18.1031C41.7984 19.4582 45.0959 21.0716 48.6217 21.126C52.3095 21.1827 55.7615 19.4747 59.0762 18.0658C63.4079 16.2242 67.4562 15.0884 72.0894 16.5226C76.9166 18.0173 81.2454 20.8992 86.4092 21.1357" stroke="white" stroke-width="0.5" stroke-miterlimit="10"/>
<path d="M-26.41 19.6963C-21.9364 19.4918 -18.077 17.3144 -13.9788 15.7458C-9.91643 14.1907 -6.25625 13.9564 -2.1185 15.4183C1.44019 16.6749 4.7877 18.6173 8.50683 19.3971C12.0387 20.1373 15.3503 19.1747 18.6113 17.8412C21.8014 16.5361 24.9765 14.8586 28.4374 14.4109C32.0088 13.949 35.3959 15.2921 38.6188 16.6652C41.7984 18.0203 45.0959 19.6336 48.6217 19.6881C52.3095 19.7448 55.7615 18.0367 59.0762 16.6279C63.4079 14.7862 67.4562 13.6505 72.0894 15.0847C76.9166 16.5794 81.2454 19.4612 86.4092 19.6978" stroke="white" stroke-width="0.5" stroke-miterlimit="10"/>
<path d="M-26.41 18.2591C-21.9364 18.0546 -18.077 15.8772 -13.9788 14.3086C-9.91643 12.7535 -6.25625 12.5192 -2.1185 13.981C1.44019 15.2377 4.7877 17.1801 8.50683 17.9599C12.0387 18.7001 15.3503 17.7375 18.6113 16.404C21.8014 15.0989 24.9765 13.4214 28.4374 12.9737C32.0088 12.5118 35.3959 13.8549 38.6188 15.228C41.7984 16.5831 45.0959 18.1964 48.6217 18.2509C52.3095 18.3076 55.7615 16.5995 59.0762 15.1907C63.4079 13.349 67.4562 12.2133 72.0894 13.6475C76.9166 15.1422 81.2454 18.024 86.4092 18.2606" stroke="white" stroke-width="0.5" stroke-miterlimit="10"/>
<path d="M-26.41 16.8211C-21.9364 16.6167 -18.077 14.4392 -13.9788 12.8707C-9.91643 11.3156 -6.25625 11.0813 -2.1185 12.5431C1.44019 13.7997 4.7877 15.7421 8.50683 16.5219C12.0387 17.2621 15.3503 16.2995 18.6113 14.966C21.8014 13.6609 24.9765 11.9834 28.4374 11.5357C32.0088 11.0738 35.3959 12.417 38.6188 13.79C41.7984 15.1451 45.0959 16.7584 48.6217 16.8129C52.3095 16.8696 55.7615 15.1616 59.0762 13.7527C63.4079 11.911 67.4562 10.7753 72.0894 12.2095C76.9166 13.7042 81.2454 16.5861 86.4092 16.8226" stroke="white" stroke-width="0.5" stroke-miterlimit="10"/>
<path d="M-26.41 15.3832C-21.9364 15.1787 -18.077 13.0013 -13.9788 11.4327C-9.91643 9.87763 -6.25625 9.64332 -2.1185 11.1051C1.44019 12.3618 4.7877 14.3042 8.50683 15.084C12.0387 15.8242 15.3503 14.8616 18.6113 13.5281C21.8014 12.223 24.9765 10.5455 28.4374 10.0978C32.0088 9.63585 35.3959 10.979 38.6188 12.3521C41.7984 13.7072 45.0959 15.3205 48.6217 15.375C52.3095 15.4317 55.7615 13.7236 59.0762 12.3148C63.4079 10.4731 67.4562 9.33737 72.0894 10.7716C76.9166 12.2663 81.2454 15.1481 86.4092 15.3847" stroke="white" stroke-width="0.5" stroke-miterlimit="10"/>
<path d="M-26.41 13.9452C-21.9364 13.7408 -18.077 11.5633 -13.9788 9.99478C-9.91643 8.43967 -6.25625 8.20536 -2.1185 9.66719C1.44019 10.9238 4.7877 12.8662 8.50683 13.646C12.0387 14.3862 15.3503 13.4236 18.6113 12.0901C21.8014 10.785 24.9765 9.10753 28.4374 8.6598C32.0088 8.1979 35.3959 9.54108 38.6188 10.9141C41.7984 12.2692 45.0959 13.8825 48.6217 13.937C52.3095 13.9937 55.7615 12.2856 59.0762 10.8768C63.4079 9.03515 67.4562 7.89941 72.0894 9.33363C76.9166 10.8283 81.2454 13.7102 86.4092 13.9467" stroke="white" stroke-width="0.5" stroke-miterlimit="10"/>
<path d="M-26.41 12.508C-21.9364 12.3036 -18.077 10.1261 -13.9788 8.55757C-9.91643 7.00246 -6.25625 6.76815 -2.1185 8.22998C1.44019 9.4866 4.7877 11.429 8.50683 12.2088C12.0387 12.949 15.3503 11.9864 18.6113 10.6529C21.8014 9.3478 24.9765 7.67032 28.4374 7.22259C32.0088 6.76069 35.3959 8.10387 38.6188 9.4769C41.7984 10.832 45.0959 12.4453 48.6217 12.4998C52.3095 12.5565 55.7615 10.8484 59.0762 9.43959C63.4079 7.59794 67.4562 6.4622 72.0894 7.89642C76.9166 9.39109 81.2454 12.273 86.4092 12.5095" stroke="white" stroke-width="0.5" stroke-miterlimit="10"/>
<path d="M-26.41 11.0701C-21.9364 10.8656 -18.077 8.68816 -13.9788 7.11962C-9.91643 5.56452 -6.25625 5.3302 -2.1185 6.79204C1.44019 8.04866 4.7877 9.99105 8.50683 10.7708C12.0387 11.5111 15.3503 10.5485 18.6113 9.21499C21.8014 7.90986 24.9765 6.23238 28.4374 5.78465C32.0088 5.32274 35.3959 6.66593 38.6188 8.03896C41.7984 9.39408 45.0959 11.0074 48.6217 11.0619C52.3095 11.1186 55.7615 9.4105 59.0762 8.00165C63.4079 6.15999 67.4562 5.02426 72.0894 6.45848C76.9166 7.95314 81.2454 10.835 86.4092 11.0716" stroke="white" stroke-width="0.5" stroke-miterlimit="10"/>
<path d="M-26.41 9.63212C-21.9364 9.42765 -18.077 7.2502 -13.9788 5.68167C-9.91643 4.12656 -6.25625 3.89225 -2.1185 5.35408C1.44019 6.6107 4.7877 8.55309 8.50683 9.33289C12.0387 10.0731 15.3503 9.11051 18.6113 7.77703C21.8014 6.47191 24.9765 4.79442 28.4374 4.34669C32.0088 3.88478 35.3959 5.22797 38.6188 6.601C41.7984 7.95612 45.0959 9.56944 48.6217 9.62391C52.3095 9.68062 55.7615 7.97254 59.0762 6.56369C63.4079 4.72204 67.4562 3.5863 72.0894 5.02052C76.9166 6.51519 81.2454 9.39706 86.4092 9.63361" stroke="white" stroke-width="0.5" stroke-miterlimit="10"/>
<path d="M-26.41 8.19491C-21.9364 7.99044 -18.077 5.813 -13.9788 4.24446C-9.91643 2.68935 -6.25625 2.45504 -2.1185 3.91687C1.44019 5.17349 4.7877 7.11588 8.50683 7.89568C12.0387 8.63592 15.3503 7.6733 18.6113 6.33982C21.8014 5.03469 24.9765 3.35721 28.4374 2.90948C32.0088 2.44757 35.3959 3.79076 38.6188 5.16379C41.7984 6.51891 45.0959 8.13222 48.6217 8.1867C52.3095 8.24341 55.7615 6.53533 59.0762 5.12648C63.4079 3.28483 67.4562 2.14909 72.0894 3.58331C76.9166 5.07798 81.2454 7.95985 86.4092 8.1964" stroke="white" stroke-width="0.5" stroke-miterlimit="10"/>
</g>
</svg>
